<svg data-v-423bf9ae="" xmlns="http://www.w3.org/2000/svg" viewBox="0 0 387 90" class="iconLeftSlogan"><!----><!----><!----><g data-v-423bf9ae="" id="76b75b05-bf91-440f-bf1f-fcf15b74a5e3" fill="#FFFDFB" transform="matrix(5.524862053113338,0,0,5.524862053113338,76.34660807519461,1.60221053118606)"><path d="M0.56 0.17L3.96 0.17Q4.56 0.17 5.06 0.36Q5.56 0.55 5.91 0.88Q6.26 1.22 6.45 1.68Q6.65 2.14 6.65 2.69L6.65 2.69Q6.65 2.93 6.60 3.19Q6.55 3.46 6.43 3.73Q6.31 4.00 6.10 4.26Q5.89 4.51 5.59 4.70L5.59 4.70Q6.03 4.86 6.33 5.24Q6.64 5.63 6.64 6.40L6.64 6.40L6.64 7.81Q6.64 9.18 5.99 9.84Q5.33 10.50 4.00 10.50L4.00 10.50L0.56 10.50L0.69 10.37L0.69 0.29L0.56 0.17ZM2.94 2.28L2.94 3.77L3.99 3.77Q4.17 3.71 4.29 3.47Q4.41 3.23 4.42 2.97Q4.42 2.70 4.31 2.49Q4.20 2.28 3.91 2.28L3.91 2.28L2.94 2.28ZM2.94 8.36L3.95 8.36Q4.13 8.36 4.26 8.23Q4.38 8.11 4.38 7.92L4.38 7.92L4.38 6.50Q4.37 6.31 4.24 6.20Q4.12 6.08 3.95 6.08L3.95 6.08L2.94 6.08L2.94 8.36ZM10.35 10.50L10.35 10.50L7.80 10.50L7.92 10.35L7.92-0.11L7.80-0.29L10.33-0.29L10.21-0.11L10.21 10.33L10.21 10.33L10.35 10.50ZM14.41 2.38L14.41 2.38Q15.04 2.38 15.57 2.55Q16.10 2.73 16.48 3.07Q16.87 3.42 17.09 3.92Q17.30 4.42 17.30 5.08L17.30 5.08L17.30 7.85Q17.30 8.51 17.09 9.02Q16.87 9.52 16.49 9.86Q16.11 10.21 15.58 10.39Q15.05 10.57 14.42 10.57L14.42 10.57Q13.78 10.57 13.24 10.39Q12.71 10.21 12.33 9.86Q11.94 9.52 11.72 9.02Q11.51 8.51 11.51 7.85L11.51 7.85L11.51 5.08Q11.51 4.42 11.72 3.92Q11.94 3.42 12.33 3.07Q12.71 2.73 13.24 2.55Q13.78 2.38 14.41 2.38ZM15.09 7.85L15.09 5.05Q15.09 4.80 14.88 4.67Q14.67 4.54 14.41 4.54Q14.15 4.54 13.94 4.67Q13.73 4.80 13.73 5.05L13.73 5.05L13.73 7.85Q13.73 8.11 13.94 8.24Q14.14 8.37 14.39 8.37Q14.64 8.37 14.86 8.25Q15.08 8.12 15.09 7.85L15.09 7.85ZM21.36 2.38L21.36 2.38Q21.99 2.38 22.53 2.55Q23.06 2.73 23.44 3.07Q23.83 3.42 24.05 3.92Q24.26 4.42 24.26 5.08L24.26 5.08L24.26 7.85Q24.26 8.51 24.05 9.02Q23.83 9.52 23.45 9.86Q23.07 10.21 22.54 10.39Q22.01 10.57 21.38 10.57L21.38 10.57Q20.73 10.57 20.20 10.39Q19.67 10.21 19.29 9.86Q18.90 9.52 18.68 9.02Q18.47 8.51 18.47 7.85L18.47 7.85L18.47 5.08Q18.47 4.42 18.68 3.92Q18.90 3.42 19.29 3.07Q19.67 2.73 20.20 2.55Q20.73 2.38 21.36 2.38ZM22.05 7.85L22.05 5.05Q22.05 4.80 21.84 4.67Q21.63 4.54 21.37 4.54Q21.11 4.54 20.90 4.67Q20.69 4.80 20.69 5.05L20.69 5.05L20.69 7.85Q20.69 8.11 20.89 8.24Q21.10 8.37 21.35 8.37Q21.60 8.37 21.82 8.25Q22.04 8.12 22.05 7.85L22.05 7.85ZM31.18 10.50L31.01 10.50L29.58 9.72Q29.09 10.22 28.62 10.38Q28.15 10.54 27.69 10.54L27.69 10.54Q26.68 10.54 26.05 9.82Q25.42 9.10 25.42 7.80L25.42 7.80L25.42 5.11Q25.42 4.51 25.58 4.00Q25.73 3.50 26.05 3.15Q26.38 2.80 26.87 2.61Q27.37 2.42 28.06 2.42L28.06 2.42L28.92 2.42L28.92 0.38L28.80 0.20L31.30 0.20L31.18 0.36L31.18 10.50ZM28.43 8.30L28.46 8.30L28.95 7.95L28.95 4.55L28.08 4.55Q27.90 4.55 27.78 4.68Q27.65 4.82 27.65 5.00L27.65 5.00L27.65 7.91Q27.65 8.08 27.73 8.18Q27.80 8.29 27.92 8.33Q28.04 8.37 28.18 8.37Q28.32 8.36 28.43 8.30L28.43 8.30ZM37.83 10.50L37.83 10.50L35.28 10.50L35.41 10.35L35.41-0.11L35.28-0.29L37.81-0.29L37.69-0.11L37.69 10.33L37.69 10.33L37.83 10.50ZM41.50 10.50L38.96 10.50L39.09 10.37L39.09 2.80L38.96 2.67L41.50 2.67L41.37 2.80L41.37 10.37L41.50 10.50ZM38.88 1.04L38.88 1.04Q38.88 0.63 39.07 0.36Q39.27 0.10 39.56-0.04Q39.84-0.17 40.19-0.17Q40.53-0.17 40.82-0.04Q41.10 0.10 41.30 0.36Q41.50 0.63 41.50 1.04L41.50 1.04Q41.50 1.43 41.30 1.70Q41.10 1.97 40.82 2.10Q40.53 2.23 40.19 2.23Q39.84 2.24 39.56 2.10Q39.27 1.96 39.07 1.70Q38.88 1.44 38.88 1.04ZM42.76 2.42L42.87 2.42L43.88 2.98Q44.06 2.86 44.24 2.75Q44.42 2.65 44.63 2.57Q44.84 2.49 45.09 2.46Q45.35 2.42 45.67 2.42L45.67 2.42Q46.28 2.42 46.81 2.56Q47.33 2.70 47.71 3.02Q48.09 3.35 48.31 3.86Q48.52 4.38 48.52 5.12L48.52 5.12L48.52 10.37L48.66 10.50L46.16 10.50L46.30 10.39L46.30 5.04Q46.30 4.80 46.09 4.68Q45.89 4.56 45.65 4.56Q45.40 4.56 45.20 4.68Q45.00 4.80 45.00 5.04L45.00 5.04L45.00 10.37L45.12 10.50L42.63 10.50L42.76 10.37L42.76 2.42ZM52.19 0.39L52.19 5.21L52.42 5.21L53.68 2.45L56.18 2.45L54.28 6.44L56.20 10.50L53.73 10.50L52.36 7.46L52.19 7.46L52.19 10.37L52.32 10.50L49.81 10.50L49.94 10.37L49.94 0.39L49.81 0.27L52.32 0.27L52.19 0.39Z"></path></g><!----><g data-v-423bf9ae="" id="cddc354b-0eee-4813-a40f-830fc75000ff" transform="matrix(1.8,0,0,1.8,-23.52026290893555,-9)" stroke="none" fill="#FFFDFB"><path d="M30 5C15.7 21.3 13.5 29.4 13.5 38.5 13.5 47.6 20.9 55 30 55s17-7.4 16.5-16.5C45.8 24.7 32.9 16.9 30 5zm-1.6 12.5C17.5 29.9 18 35.1 18 42.1c0 .6 0 1.1.1 1.6-.6-1.4-.9-3-.9-4.7 0-6.9.3-13.7 11.1-26 .3 1-.3 3.6.1 4.5z"></path></g><!----><g data-v-423bf9ae="" id="d95b63c4-05f0-44c7-a84f-2e3e049a6cb9" fill="#FFFDFB" transform="matrix(1.0245496740456002,0,0,1.0245496740456002,78.90775686100639,56.11695491153372)"><path d="M8.43 12.21C8.40 12.18 8.36 12.15 8.32 12.15C8.29 12.15 8.27 12.15 8.25 12.17C8.23 12.18 8.20 12.21 8.18 12.22C7.98 12.40 7.77 12.56 7.57 12.70C7.38 12.84 7.17 12.94 6.93 13.03C6.69 13.13 6.44 13.20 6.16 13.24C5.88 13.29 5.57 13.31 5.22 13.31C4.66 13.31 4.12 13.22 3.64 13.01C3.15 12.81 2.74 12.52 2.39 12.14C2.04 11.76 1.75 11.28 1.55 10.74C1.36 10.19 1.26 9.56 1.26 8.86C1.26 8.18 1.36 7.56 1.55 7.01C1.76 6.47 2.04 6.01 2.41 5.61C2.77 5.24 3.21 4.94 3.71 4.73C4.21 4.52 4.76 4.42 5.36 4.42C6.26 4.42 7.08 4.56 7.81 4.89C7.85 5.78 7.90 6.30 7.90 6.41C7.91 6.64 7.99 6.75 8.19 6.75L8.53 6.75L8.53 4.51C7.35 4.03 6.29 3.81 5.36 3.81C4.65 3.81 4.00 3.92 3.40 4.17C2.81 4.42 2.28 4.76 1.86 5.21C1.43 5.66 1.11 6.19 0.87 6.80C0.63 7.42 0.52 8.11 0.52 8.86C0.52 9.63 0.64 10.32 0.87 10.95C1.09 11.58 1.41 12.10 1.82 12.54C2.23 12.99 2.72 13.33 3.29 13.57C3.86 13.80 4.48 13.93 5.17 13.93C5.57 13.93 5.95 13.90 6.30 13.83C6.64 13.76 6.96 13.66 7.25 13.54C7.53 13.41 7.80 13.26 8.04 13.09C8.27 12.91 8.50 12.73 8.71 12.50ZM25.98 8.86C25.98 8.11 25.86 7.41 25.63 6.79C25.41 6.17 25.09 5.64 24.67 5.19C24.25 4.75 23.76 4.40 23.18 4.16C22.61 3.92 21.95 3.79 21.25 3.79C20.55 3.79 19.92 3.92 19.35 4.16C18.77 4.40 18.27 4.75 17.85 5.19C17.43 5.64 17.11 6.17 16.88 6.79C16.66 7.41 16.53 8.11 16.53 8.86C16.53 9.63 16.66 10.33 16.88 10.95C17.11 11.56 17.43 12.10 17.85 12.54C18.27 12.99 18.77 13.33 19.35 13.57C19.92 13.80 20.55 13.93 21.25 13.93C21.95 13.93 22.61 13.80 23.18 13.57C23.76 13.33 24.25 12.99 24.67 12.54C25.09 12.10 25.41 11.56 25.63 10.95C25.86 10.33 25.98 9.63 25.98 8.86ZM25.23 8.86C25.23 9.56 25.14 10.18 24.95 10.72C24.75 11.27 24.49 11.75 24.14 12.12C23.79 12.50 23.37 12.81 22.88 13.01C22.39 13.20 21.85 13.30 21.25 13.30C20.66 13.30 20.13 13.20 19.64 13.01C19.15 12.81 18.73 12.50 18.38 12.12C18.03 11.75 17.75 11.27 17.56 10.72C17.36 10.18 17.28 9.56 17.28 8.86C17.28 8.18 17.36 7.55 17.56 7.00C17.75 6.45 18.03 5.98 18.38 5.60C18.73 5.22 19.15 4.91 19.64 4.72C20.13 4.52 20.66 4.41 21.25 4.41C21.85 4.41 22.39 4.52 22.88 4.72C23.37 4.91 23.79 5.22 24.14 5.60C24.49 5.98 24.75 6.45 24.95 7.00C25.14 7.55 25.23 8.18 25.23 8.86ZM42.81 3.92L42.18 3.92L40.96 3.92L40.96 4.19C40.96 4.34 41.06 4.42 41.24 4.44L41.38 4.44C41.45 4.44 41.57 4.45 41.71 4.45C41.85 4.45 42.01 4.47 42.18 4.47L42.18 12.22C42.18 12.35 42.18 12.49 42.20 12.63L35.78 4.05C35.74 3.99 35.71 3.95 35.67 3.93C35.63 3.92 35.59 3.91 35.52 3.91L35.17 3.91L33.98 3.91L33.98 4.19C33.98 4.34 34.08 4.42 34.26 4.44L34.40 4.44C34.47 4.44 34.57 4.45 34.71 4.45C34.85 4.45 35 4.47 35.17 4.47L35.17 13.26C35 13.26 34.85 13.27 34.71 13.27C34.57 13.27 34.47 13.29 34.40 13.29L34.26 13.29C34.08 13.30 33.98 13.38 33.98 13.54L33.98 13.82L35.17 13.82L35.78 13.82L37.00 13.82L37.00 13.54C37.00 13.38 36.90 13.30 36.72 13.29L36.58 13.29C36.51 13.29 36.39 13.27 36.25 13.27C36.11 13.27 35.95 13.26 35.78 13.26L35.78 5.49C35.78 5.36 35.78 5.22 35.77 5.08L42.21 13.68C42.28 13.78 42.35 13.82 42.46 13.82L42.81 13.82L42.81 4.47C42.98 4.47 43.12 4.45 43.26 4.45C43.40 4.45 43.51 4.44 43.58 4.44L43.71 4.44C43.89 4.42 43.99 4.34 43.99 4.19L43.99 3.92ZM60.86 3.92L60.23 3.92L59.01 3.92L59.01 4.19C59.01 4.34 59.11 4.42 59.29 4.44L59.43 4.44C59.50 4.44 59.61 4.45 59.75 4.45C59.89 4.45 60.06 4.47 60.23 4.47L60.23 12.22C60.23 12.35 60.23 12.49 60.24 12.63L53.83 4.05C53.79 3.99 53.76 3.95 53.72 3.93C53.68 3.92 53.63 3.91 53.56 3.91L53.21 3.91L52.02 3.91L52.02 4.19C52.02 4.34 52.12 4.42 52.30 4.44L52.44 4.44C52.51 4.44 52.61 4.45 52.75 4.45C52.89 4.45 53.05 4.47 53.21 4.47L53.21 13.26C53.05 13.26 52.89 13.27 52.75 13.27C52.61 13.27 52.51 13.29 52.44 13.29L52.30 13.29C52.12 13.30 52.02 13.38 52.02 13.54L52.02 13.82L53.21 13.82L53.83 13.82L55.05 13.82L55.05 13.54C55.05 13.38 54.95 13.30 54.77 13.29L54.63 13.29C54.56 13.29 54.43 13.27 54.29 13.27C54.15 13.27 54.00 13.26 53.83 13.26L53.83 5.49C53.83 5.36 53.83 5.22 53.82 5.08L60.26 13.68C60.33 13.78 60.40 13.82 60.51 13.82L60.86 13.82L60.86 4.47C61.03 4.47 61.17 4.45 61.31 4.45C61.45 4.45 61.56 4.44 61.63 4.44L61.75 4.44C61.94 4.42 62.03 4.34 62.03 4.19L62.03 3.92ZM71.26 3.92L70.07 3.92L70.07 4.19C70.07 4.34 70.17 4.42 70.35 4.44L70.49 4.44C70.56 4.44 70.66 4.45 70.80 4.45C70.94 4.45 71.09 4.47 71.26 4.47L71.26 13.26C71.09 13.26 70.94 13.27 70.80 13.27C70.66 13.27 70.56 13.29 70.49 13.29L70.35 13.29C70.17 13.30 70.08 13.38 70.08 13.54L70.08 13.82L71.26 13.82L77.20 13.82L77.20 13.22L77.20 11.76L76.85 11.76C76.65 11.76 76.57 11.89 76.55 12.11C76.55 12.14 76.54 12.19 76.54 12.29C76.54 12.39 76.54 12.53 76.52 12.74C76.51 12.95 76.50 13.09 76.50 13.22L71.97 13.22L71.97 9.09L75.92 9.09L75.92 8.51L71.97 8.51L71.97 4.51L76.50 4.51C76.52 5.12 76.55 5.50 76.55 5.63C76.57 5.85 76.65 5.96 76.85 5.96L77.20 5.96L77.20 4.51L77.20 3.92ZM93.39 12.21C93.37 12.18 93.32 12.15 93.28 12.15C93.25 12.15 93.24 12.15 93.21 12.17C93.20 12.18 93.17 12.21 93.14 12.22C92.95 12.40 92.74 12.56 92.54 12.70C92.34 12.84 92.13 12.94 91.90 13.03C91.66 13.13 91.41 13.20 91.13 13.24C90.85 13.29 90.54 13.31 90.19 13.31C89.63 13.31 89.08 13.22 88.61 13.01C88.12 12.81 87.71 12.52 87.36 12.14C87.01 11.76 86.72 11.28 86.52 10.74C86.32 10.19 86.23 9.56 86.23 8.86C86.23 8.18 86.32 7.56 86.52 7.01C86.73 6.47 87.01 6.01 87.37 5.61C87.74 5.24 88.17 4.94 88.68 4.73C89.18 4.52 89.73 4.42 90.33 4.42C91.22 4.42 92.05 4.56 92.78 4.89C92.82 5.78 92.86 6.30 92.86 6.41C92.88 6.64 92.96 6.75 93.16 6.75L93.49 6.75L93.49 4.51C92.32 4.03 91.25 3.81 90.33 3.81C89.61 3.81 88.97 3.92 88.37 4.17C87.78 4.42 87.25 4.76 86.83 5.21C86.39 5.66 86.07 6.19 85.83 6.80C85.60 7.42 85.48 8.11 85.48 8.86C85.48 9.63 85.61 10.32 85.83 10.95C86.06 11.58 86.38 12.10 86.79 12.54C87.19 12.99 87.68 13.33 88.26 13.57C88.83 13.80 89.45 13.93 90.13 13.93C90.54 13.93 90.92 13.90 91.27 13.83C91.60 13.76 91.92 13.66 92.22 13.54C92.50 13.41 92.76 13.26 93.00 13.09C93.24 12.91 93.46 12.73 93.67 12.50ZM109.83 3.92L109.63 3.92L102.34 3.92L102.13 3.92L102.03 3.92L102.03 5.96L102.38 5.96C102.58 5.96 102.66 5.85 102.68 5.63C102.68 5.53 102.70 5.17 102.73 4.52L105.63 4.52L105.63 13.26C105.46 13.26 105.32 13.27 105.18 13.27C105.04 13.27 104.93 13.29 104.86 13.29L104.73 13.29C104.55 13.30 104.45 13.38 104.45 13.54L104.45 13.82L105.63 13.82L106.34 13.82L107.53 13.82L107.53 13.54C107.53 13.38 107.44 13.30 107.25 13.29L107.11 13.29C107.04 13.29 106.95 13.27 106.81 13.27C106.67 13.27 106.51 13.26 106.34 13.26L106.34 4.52L109.23 4.52C109.27 5.24 109.28 5.60 109.28 5.63C109.30 5.85 109.40 5.96 109.59 5.96L109.93 5.96L109.93 3.92ZM120.85 4.44C121.03 4.42 121.11 4.34 121.11 4.19L121.11 3.91L119.94 3.91L119.22 3.91L118.03 3.91L118.03 4.19C118.03 4.34 118.13 4.42 118.31 4.44L118.45 4.44C118.52 4.44 118.62 4.45 118.76 4.45C118.90 4.45 119.06 4.47 119.22 4.47L119.22 13.26C119.06 13.26 118.90 13.27 118.76 13.27C118.62 13.27 118.52 13.29 118.45 13.29L118.31 13.29C118.13 13.30 118.03 13.38 118.03 13.54L118.03 13.82L119.22 13.82L119.94 13.82L121.11 13.82L121.11 13.54C121.11 13.38 121.03 13.30 120.85 13.29L120.71 13.29C120.64 13.29 120.54 13.27 120.40 13.27C120.26 13.27 120.11 13.26 119.94 13.26L119.94 4.47C120.11 4.47 120.26 4.45 120.40 4.45C120.54 4.45 120.64 4.44 120.71 4.44ZM138.29 3.92L137.66 3.92L136.44 3.92L136.44 4.19C136.44 4.34 136.54 4.42 136.72 4.44L136.86 4.44C136.93 4.44 137.05 4.45 137.19 4.45C137.33 4.45 137.49 4.47 137.66 4.47L137.66 12.22C137.66 12.35 137.66 12.49 137.68 12.63L131.26 4.05C131.22 3.99 131.19 3.95 131.15 3.93C131.11 3.92 131.07 3.91 131.00 3.91L130.65 3.91L129.46 3.91L129.46 4.19C129.46 4.34 129.56 4.42 129.74 4.44L129.88 4.44C129.95 4.44 130.05 4.45 130.19 4.45C130.33 4.45 130.48 4.47 130.65 4.47L130.65 13.26C130.48 13.26 130.33 13.27 130.19 13.27C130.05 13.27 129.95 13.29 129.88 13.29L129.74 13.29C129.56 13.30 129.46 13.38 129.46 13.54L129.46 13.82L130.65 13.82L131.26 13.82L132.48 13.82L132.48 13.54C132.48 13.38 132.38 13.30 132.20 13.29L132.06 13.29C131.99 13.29 131.87 13.27 131.73 13.27C131.59 13.27 131.43 13.26 131.26 13.26L131.26 5.49C131.26 5.36 131.26 5.22 131.25 5.08L137.69 13.68C137.76 13.78 137.83 13.82 137.94 13.82L138.29 13.82L138.29 4.47C138.46 4.47 138.60 4.45 138.74 4.45C138.88 4.45 138.99 4.44 139.06 4.44L139.19 4.44C139.37 4.42 139.47 4.34 139.47 4.19L139.47 3.92ZM153.15 9.32L153.15 9.72C153.15 9.76 153.17 9.80 153.20 9.83C153.23 9.86 153.27 9.87 153.33 9.87L155.23 9.87L155.23 12.54C155.01 12.67 154.78 12.78 154.57 12.88C154.36 12.98 154.13 13.08 153.89 13.15C153.65 13.22 153.38 13.27 153.10 13.30C152.82 13.33 152.52 13.34 152.18 13.34C151.56 13.34 151.00 13.24 150.50 13.03C150.00 12.82 149.56 12.53 149.20 12.15C148.83 11.77 148.55 11.30 148.36 10.74C148.16 10.18 148.05 9.56 148.05 8.86C148.05 8.18 148.16 7.56 148.36 7.01C148.55 6.47 148.83 5.99 149.20 5.61C149.56 5.24 150.01 4.94 150.53 4.73C151.05 4.52 151.62 4.42 152.26 4.42C153.44 4.42 154.38 4.58 155.06 4.90C155.11 5.81 155.13 6.31 155.13 6.41C155.15 6.64 155.25 6.75 155.44 6.75L155.78 6.75L155.78 4.51C155.34 4.31 154.78 4.14 154.08 4.00C153.38 3.86 152.80 3.81 152.29 3.81C151.54 3.81 150.85 3.92 150.23 4.16C149.62 4.40 149.10 4.75 148.67 5.18C148.23 5.61 147.91 6.15 147.67 6.78C147.43 7.39 147.32 8.09 147.32 8.86C147.32 9.63 147.43 10.32 147.67 10.95C147.91 11.58 148.23 12.10 148.65 12.54C149.07 12.99 149.59 13.33 150.18 13.57C150.77 13.80 151.41 13.93 152.12 13.93C152.54 13.93 152.92 13.90 153.27 13.86C153.62 13.80 153.94 13.73 154.25 13.65C154.56 13.55 154.84 13.44 155.11 13.30C155.37 13.16 155.62 13.01 155.88 12.84L155.88 9.32ZM181.02 11.97C180.82 11.97 180.74 12.08 180.73 12.31C180.73 12.32 180.73 12.38 180.71 12.43C180.70 12.49 180.70 12.59 180.68 12.71C180.67 12.84 180.66 13.01 180.64 13.20L176.55 13.20L176.55 4.47C176.72 4.47 176.86 4.45 177.00 4.45C177.14 4.45 177.25 4.44 177.32 4.44L177.45 4.44C177.63 4.42 177.73 4.34 177.73 4.19L177.73 3.92L176.55 3.92L175.84 3.92L174.65 3.92L174.65 4.19C174.65 4.34 174.75 4.42 174.93 4.44L175.07 4.44C175.14 4.44 175.24 4.45 175.38 4.45C175.52 4.45 175.67 4.47 175.84 4.47L175.84 13.26C175.67 13.26 175.52 13.27 175.38 13.27C175.24 13.27 175.14 13.29 175.07 13.29L174.93 13.29C174.75 13.30 174.65 13.38 174.65 13.54L174.65 13.82L175.84 13.82L181.12 13.82L181.24 13.82L181.37 13.82L181.37 13.55L181.37 12.99L181.37 11.97L181.09 11.97ZM192.61 4.44C192.79 4.42 192.88 4.34 192.88 4.19L192.88 3.91L191.70 3.91L190.99 3.91L189.80 3.91L189.80 4.19C189.80 4.34 189.90 4.42 190.08 4.44L190.22 4.44C190.29 4.44 190.39 4.45 190.53 4.45C190.67 4.45 190.82 4.47 190.99 4.47L190.99 13.26C190.82 13.26 190.67 13.27 190.53 13.27C190.39 13.27 190.29 13.29 190.22 13.29L190.08 13.29C189.90 13.30 189.80 13.38 189.80 13.54L189.80 13.82L190.99 13.82L191.70 13.82L192.88 13.82L192.88 13.54C192.88 13.38 192.79 13.30 192.61 13.29L192.47 13.29C192.40 13.29 192.30 13.27 192.16 13.27C192.02 13.27 191.87 13.26 191.70 13.26L191.70 4.47C191.87 4.47 192.02 4.45 192.16 4.45C192.30 4.45 192.40 4.44 192.47 4.44ZM210.27 3.92L209.71 3.92L209.68 3.92L208.21 3.92L208.21 4.19C208.21 4.34 208.29 4.42 208.47 4.44L208.60 4.44C208.66 4.44 208.74 4.45 208.87 4.45C208.99 4.45 209.13 4.47 209.29 4.47L206.08 12.32C206.00 12.53 205.93 12.75 205.87 13.01C205.81 12.77 205.74 12.53 205.66 12.32L202.43 4.47C202.58 4.47 202.73 4.45 202.86 4.45C202.99 4.45 203.07 4.44 203.13 4.44L203.24 4.44C203.42 4.42 203.52 4.34 203.52 4.19L203.52 3.92L202.02 3.92L201.46 3.92L200.86 3.92L200.86 4.19C200.86 4.34 200.96 4.42 201.14 4.44L201.24 4.44C201.28 4.44 201.35 4.45 201.42 4.45C201.49 4.45 201.59 4.47 201.68 4.47L205.55 13.82L206.18 13.82L210.04 4.47C210.14 4.47 210.24 4.45 210.31 4.45C210.38 4.45 210.45 4.44 210.49 4.44L210.57 4.44C210.76 4.42 210.85 4.34 210.85 4.19L210.85 3.92ZM220.09 3.92L218.90 3.92L218.90 4.19C218.90 4.34 219.00 4.42 219.18 4.44L219.32 4.44C219.39 4.44 219.49 4.45 219.63 4.45C219.77 4.45 219.93 4.47 220.09 4.47L220.09 13.26C219.93 13.26 219.77 13.27 219.63 13.27C219.49 13.27 219.39 13.29 219.32 13.29L219.18 13.29C219.00 13.30 218.92 13.38 218.92 13.54L218.92 13.82L220.09 13.82L226.03 13.82L226.03 13.22L226.03 11.76L225.68 11.76C225.48 11.76 225.40 11.89 225.39 12.11C225.39 12.14 225.37 12.19 225.37 12.29C225.37 12.39 225.37 12.53 225.36 12.74C225.34 12.95 225.33 13.09 225.33 13.22L220.81 13.22L220.81 9.09L224.76 9.09L224.76 8.51L220.81 8.51L220.81 4.51L225.33 4.51C225.36 5.12 225.39 5.50 225.39 5.63C225.40 5.85 225.48 5.96 225.68 5.96L226.03 5.96L226.03 4.51L226.03 3.92ZM240.34 9.91C240.20 9.65 240.00 9.39 239.76 9.21C239.53 9.03 239.27 8.88 238.98 8.75C238.69 8.62 238.36 8.51 238.06 8.41C237.75 8.32 237.44 8.20 237.15 8.11C236.85 7.99 236.59 7.87 236.35 7.71C236.11 7.56 235.93 7.38 235.79 7.15C235.65 6.93 235.56 6.65 235.56 6.31C235.56 6.06 235.62 5.82 235.72 5.59C235.82 5.35 235.96 5.15 236.14 4.97C236.32 4.79 236.54 4.65 236.82 4.55C237.10 4.45 237.41 4.40 237.78 4.40C238.45 4.40 239.06 4.51 239.62 4.75C239.67 5.54 239.69 5.99 239.69 6.06C239.71 6.29 239.79 6.41 239.99 6.41L240.32 6.41L240.32 4.38C239.44 4.00 238.60 3.81 237.78 3.81C237.31 3.81 236.91 3.88 236.54 4.02C236.18 4.16 235.89 4.34 235.65 4.58C235.41 4.82 235.21 5.08 235.09 5.39C234.96 5.70 234.91 6.02 234.91 6.36C234.91 6.78 234.98 7.14 235.12 7.42C235.26 7.70 235.45 7.92 235.69 8.12C235.93 8.32 236.18 8.46 236.47 8.58C236.77 8.71 237.09 8.82 237.40 8.92C237.71 9.02 238.00 9.11 238.31 9.21C238.60 9.31 238.87 9.45 239.11 9.60C239.34 9.76 239.53 9.94 239.67 10.16C239.81 10.39 239.88 10.68 239.88 11.03C239.88 11.35 239.82 11.66 239.71 11.94C239.60 12.22 239.44 12.46 239.23 12.67C239.02 12.88 238.76 13.05 238.45 13.16C238.14 13.29 237.79 13.33 237.40 13.33C236.61 13.33 235.96 13.20 235.42 12.95C235.41 12.75 235.41 12.54 235.40 12.32C235.38 12.10 235.38 11.91 235.37 11.76C235.35 11.61 235.35 11.52 235.35 11.51C235.34 11.28 235.24 11.17 235.05 11.17L234.71 11.17L234.71 13.02L234.71 13.20L234.71 13.38C235.56 13.75 236.45 13.93 237.37 13.93C237.87 13.93 238.32 13.85 238.71 13.69C239.11 13.54 239.44 13.31 239.71 13.05C239.97 12.78 240.20 12.46 240.34 12.10C240.48 11.73 240.55 11.34 240.55 10.92C240.55 10.51 240.48 10.18 240.34 9.91Z"></path></g></svg>