<svg data-v-423bf9ae="" xmlns="http://www.w3.org/2000/svg" viewBox="0 0 307.40332126311796 60" class="font"><!----><!----><!----><g data-v-423bf9ae="" id="efc357ab-d506-4b2b-a955-81dbc877b8b2" fill="black" transform="matrix(5.524862053113338,0,0,5.524862053113338,-3.093920794434297,1.60221053118606)"><path d="M0.56 0.17L3.96 0.17Q4.56 0.17 5.06 0.36Q5.56 0.55 5.91 0.88Q6.26 1.22 6.45 1.68Q6.65 2.14 6.65 2.69L6.65 2.69Q6.65 2.93 6.60 3.19Q6.55 3.46 6.43 3.73Q6.31 4.00 6.10 4.26Q5.89 4.51 5.59 4.70L5.59 4.70Q6.03 4.86 6.33 5.24Q6.64 5.63 6.64 6.40L6.64 6.40L6.64 7.81Q6.64 9.18 5.99 9.84Q5.33 10.50 4.00 10.50L4.00 10.50L0.56 10.50L0.69 10.37L0.69 0.29L0.56 0.17ZM2.94 2.28L2.94 3.77L3.99 3.77Q4.17 3.71 4.29 3.47Q4.41 3.23 4.42 2.97Q4.42 2.70 4.31 2.49Q4.20 2.28 3.91 2.28L3.91 2.28L2.94 2.28ZM2.94 8.36L3.95 8.36Q4.13 8.36 4.26 8.23Q4.38 8.11 4.38 7.92L4.38 7.92L4.38 6.50Q4.37 6.31 4.24 6.20Q4.12 6.08 3.95 6.08L3.95 6.08L2.94 6.08L2.94 8.36ZM10.35 10.50L10.35 10.50L7.80 10.50L7.92 10.35L7.92-0.11L7.80-0.29L10.33-0.29L10.21-0.11L10.21 10.33L10.21 10.33L10.35 10.50ZM14.41 2.38L14.41 2.38Q15.04 2.38 15.57 2.55Q16.10 2.73 16.48 3.07Q16.87 3.42 17.09 3.92Q17.30 4.42 17.30 5.08L17.30 5.08L17.30 7.85Q17.30 8.51 17.09 9.02Q16.87 9.52 16.49 9.86Q16.11 10.21 15.58 10.39Q15.05 10.57 14.42 10.57L14.42 10.57Q13.78 10.57 13.24 10.39Q12.71 10.21 12.33 9.86Q11.94 9.52 11.72 9.02Q11.51 8.51 11.51 7.85L11.51 7.85L11.51 5.08Q11.51 4.42 11.72 3.92Q11.94 3.42 12.33 3.07Q12.71 2.73 13.24 2.55Q13.78 2.38 14.41 2.38ZM15.09 7.85L15.09 5.05Q15.09 4.80 14.88 4.67Q14.67 4.54 14.41 4.54Q14.15 4.54 13.94 4.67Q13.73 4.80 13.73 5.05L13.73 5.05L13.73 7.85Q13.73 8.11 13.94 8.24Q14.14 8.37 14.39 8.37Q14.64 8.37 14.86 8.25Q15.08 8.12 15.09 7.85L15.09 7.85ZM21.36 2.38L21.36 2.38Q21.99 2.38 22.53 2.55Q23.06 2.73 23.44 3.07Q23.83 3.42 24.05 3.92Q24.26 4.42 24.26 5.08L24.26 5.08L24.26 7.85Q24.26 8.51 24.05 9.02Q23.83 9.52 23.45 9.86Q23.07 10.21 22.54 10.39Q22.01 10.57 21.38 10.57L21.38 10.57Q20.73 10.57 20.20 10.39Q19.67 10.21 19.29 9.86Q18.90 9.52 18.68 9.02Q18.47 8.51 18.47 7.85L18.47 7.85L18.47 5.08Q18.47 4.42 18.68 3.92Q18.90 3.42 19.29 3.07Q19.67 2.73 20.20 2.55Q20.73 2.38 21.36 2.38ZM22.05 7.85L22.05 5.05Q22.05 4.80 21.84 4.67Q21.63 4.54 21.37 4.54Q21.11 4.54 20.90 4.67Q20.69 4.80 20.69 5.05L20.69 5.05L20.69 7.85Q20.69 8.11 20.89 8.24Q21.10 8.37 21.35 8.37Q21.60 8.37 21.82 8.25Q22.04 8.12 22.05 7.85L22.05 7.85ZM31.18 10.50L31.01 10.50L29.58 9.72Q29.09 10.22 28.62 10.38Q28.15 10.54 27.69 10.54L27.69 10.54Q26.68 10.54 26.05 9.82Q25.42 9.10 25.42 7.80L25.42 7.80L25.42 5.11Q25.42 4.51 25.58 4.00Q25.73 3.50 26.05 3.15Q26.38 2.80 26.87 2.61Q27.37 2.42 28.06 2.42L28.06 2.42L28.92 2.42L28.92 0.38L28.80 0.20L31.30 0.20L31.18 0.36L31.18 10.50ZM28.43 8.30L28.46 8.30L28.95 7.95L28.95 4.55L28.08 4.55Q27.90 4.55 27.78 4.68Q27.65 4.82 27.65 5.00L27.65 5.00L27.65 7.91Q27.65 8.08 27.73 8.18Q27.80 8.29 27.92 8.33Q28.04 8.37 28.18 8.37Q28.32 8.36 28.43 8.30L28.43 8.30ZM37.83 10.50L37.83 10.50L35.28 10.50L35.41 10.35L35.41-0.11L35.28-0.29L37.81-0.29L37.69-0.11L37.69 10.33L37.69 10.33L37.83 10.50ZM41.50 10.50L38.96 10.50L39.09 10.37L39.09 2.80L38.96 2.67L41.50 2.67L41.37 2.80L41.37 10.37L41.50 10.50ZM38.88 1.04L38.88 1.04Q38.88 0.63 39.07 0.36Q39.27 0.10 39.56-0.04Q39.84-0.17 40.19-0.17Q40.53-0.17 40.82-0.04Q41.10 0.10 41.30 0.36Q41.50 0.63 41.50 1.04L41.50 1.04Q41.50 1.43 41.30 1.70Q41.10 1.97 40.82 2.10Q40.53 2.23 40.19 2.23Q39.84 2.24 39.56 2.10Q39.27 1.96 39.07 1.70Q38.88 1.44 38.88 1.04ZM42.76 2.42L42.87 2.42L43.88 2.98Q44.06 2.86 44.24 2.75Q44.42 2.65 44.63 2.57Q44.84 2.49 45.09 2.46Q45.35 2.42 45.67 2.42L45.67 2.42Q46.28 2.42 46.81 2.56Q47.33 2.70 47.71 3.02Q48.09 3.35 48.31 3.86Q48.52 4.38 48.52 5.12L48.52 5.12L48.52 10.37L48.66 10.50L46.16 10.50L46.30 10.39L46.30 5.04Q46.30 4.80 46.09 4.68Q45.89 4.56 45.65 4.56Q45.40 4.56 45.20 4.68Q45.00 4.80 45.00 5.04L45.00 5.04L45.00 10.37L45.12 10.50L42.63 10.50L42.76 10.37L42.76 2.42ZM52.19 0.39L52.19 5.21L52.42 5.21L53.68 2.45L56.18 2.45L54.28 6.44L56.20 10.50L53.73 10.50L52.36 7.46L52.19 7.46L52.19 10.37L52.32 10.50L49.81 10.50L49.94 10.37L49.94 0.39L49.81 0.27L52.32 0.27L52.19 0.39Z"></path></g><!----><!----></svg>